<svg xmlns="http://www.w3.org/2000/svg" width="1200" height="720" viewBox="0 0 1200 720"><rect width="1200" height="720" rx="36" fill="#f8fafc"/><rect x="55" y="55" width="1090" height="610" rx="32" fill="#fff" stroke="#dbeafe" stroke-width="3"/><text x="90" y="120" font-family="Arial,sans-serif" font-size="28" font-weight="700" fill="#1d4ed8">MISSION EDF SEI • SAINT-BARTHÉLEMY</text><text x="90" y="165" font-family="Arial,sans-serif" font-size="48" font-weight="800" fill="#0f172a">Structurer • Fiabiliser • Planifier</text><text x="90" y="210" font-family="Arial,sans-serif" font-size="22" fill="#64748b">Maintenance préventive des 8 compresseurs de la centrale</text><g transform="translate(90 285)"><rect width="220" height="140" rx="24" fill="#eff6ff"/><text x="28" y="48" font-family="Arial" font-size="18" fill="#475569">Parc étudié</text><text x="28" y="98" font-family="Arial" font-size="48" font-weight="800" fill="#1d4ed8">8</text><text x="92" y="98" font-family="Arial" font-size="22" font-weight="700" fill="#0f172a">compresseurs</text></g><g transform="translate(340 285)"><rect width="220" height="140" rx="24" fill="#fff7ed"/><text x="28" y="48" font-family="Arial" font-size="18" fill="#475569">Familles</text><text x="28" y="98" font-family="Arial" font-size="48" font-weight="800" fill="#f97316">3</text><text x="88" y="98" font-family="Arial" font-size="20" font-weight="700" fill="#0f172a">technologies</text></g><g transform="translate(590 285)"><rect width="220" height="140" rx="24" fill="#ecfdf5"/><text x="28" y="48" font-family="Arial" font-size="18" fill="#475569">Livrables</text><text x="28" y="92" font-family="Arial" font-size="28" font-weight="800" fill="#059669">PLM + PDR</text><text x="28" y="120" font-family="Arial" font-size="18" fill="#475569">par famille</text></g><g transform="translate(840 285)"><rect width="220" height="140" rx="24" fill="#fefce8"/><text x="28" y="48" font-family="Arial" font-size="18" fill="#475569">Projection</text><text x="28" y="92" font-family="Arial" font-size="28" font-weight="800" fill="#ca8a04">3 ans</text><text x="28" y="120" font-family="Arial" font-size="18" fill="#475569">planning dynamique</text></g><path d="M130 515 H1030" stroke="#cbd5e1" stroke-width="4" stroke-linecap="round"/><g font-family="Arial" font-size="20" font-weight="700"><circle cx="170" cy="515" r="13" fill="#1d4ed8"/><text x="135" y="555" fill="#0f172a">Docs</text><circle cx="405" cy="515" r="13" fill="#1d4ed8"/><text x="375" y="555" fill="#0f172a">PLM</text><circle cx="640" cy="515" r="13" fill="#1d4ed8"/><text x="612" y="555" fill="#0f172a">PDR</text><circle cx="875" cy="515" r="13" fill="#1d4ed8"/><text x="835" y="555" fill="#0f172a">HDM</text><circle cx="1030" cy="515" r="13" fill="#f97316"/><text x="966" y="555" fill="#0f172a">Planning</text></g><text x="90" y="625" font-family="Arial" font-size="20" fill="#64748b">Objectif : anticiper les maintenances, préparer les pièces et fiabiliser les échéances.</text></svg>