<svg xmlns="http://www.w3.org/2000/svg" width="1200" height="720" viewBox="0 0 1200 720"><rect width="1200" height="720" rx="36" fill="#f8fafc"/><rect x="55" y="55" width="1090" height="610" rx="30" fill="#fff" stroke="#dbeafe" stroke-width="3"/><text x="90" y="115" font-family="Arial" font-size="28" font-weight="700" fill="#1d4ed8">PLANNING PRÉVISIONNEL TRIENNAL</text><text x="90" y="160" font-family="Arial" font-size="42" font-weight="800" fill="#0f172a">Projection 2026 → 2028</text><text x="90" y="198" font-family="Arial" font-size="20" fill="#64748b">Pilotage par heures de marche et recalage avec les interventions réelles</text><g transform="translate(90 255)"><text x="0" y="0" font-family="Arial" font-size="20" font-weight="700" fill="#0f172a">Équipement</text><g font-family="Arial" font-size="18" fill="#475569"><text x="0" y="55">G01</text><text x="0" y="100">G02</text><text x="0" y="145">G03</text><text x="0" y="190">G04</text><text x="0" y="235">G05</text><text x="0" y="280">G06</text></g><g transform="translate(95 -22)"><g font-family="Arial" font-size="16" fill="#64748b"><text x="20" y="22">2026</text><text x="335" y="22">2027</text><text x="650" y="22">2028</text></g><g stroke="#cbd5e1" stroke-width="1"><path d="M0 38 H900"/><path d="M0 83 H900"/><path d="M0 128 H900"/><path d="M0 173 H900"/><path d="M0 218 H900"/><path d="M0 263 H900"/><path d="M0 308 H900"/></g><g><rect x="80" y="50" width="80" height="22" rx="6" fill="#22c55e"/><rect x="210" y="95" width="110" height="22" rx="6" fill="#2563eb"/><rect x="355" y="140" width="150" height="22" rx="6" fill="#ef4444"/><rect x="545" y="185" width="100" height="22" rx="6" fill="#eab308"/><rect x="685" y="230" width="90" height="22" rx="6" fill="#22c55e"/><rect x="800" y="275" width="70" height="22" rx="6" fill="#2563eb"/></g></g></g><g font-family="Arial" font-size="17"><rect x="90" y="600" width="20" height="20" fill="#22c55e"/><text x="120" y="616" fill="#475569">Visite courte</text><rect x="270" y="600" width="20" height="20" fill="#2563eb"/><text x="300" y="616" fill="#475569">Visite intermédiaire</text><rect x="520" y="600" width="20" height="20" fill="#eab308"/><text x="550" y="616" fill="#475569">Visite lourde</text><rect x="740" y="600" width="20" height="20" fill="#ef4444"/><text x="770" y="616" fill="#475569">Révision majeure</text></g></svg>